<?xml version="1.0" standalone="no"?>
<!DOCTYPE svg PUBLIC "-//W3C//DTD SVG 20010904//EN"
 "http://www.w3.org/TR/2001/REC-SVG-20010904/DTD/svg10.dtd">
<svg version="1.0" xmlns="http://www.w3.org/2000/svg"
 width="903.000000pt" height="903.000000pt" viewBox="0 0 903.000000 903.000000"
 preserveAspectRatio="xMidYMid meet">
<metadata>
Created by potrace 1.14, written by Peter Selinger 2001-2017
</metadata>
<g transform="translate(0.000000,903.000000) scale(0.100000,-0.100000)"
fill="#000000" stroke="none">
<path d="M4750 7636 l0 -1004 46 -4 c25 -2 48 0 50 4 2 3 17 3 33 -2 16 -4 32
-6 35 -3 3 4 29 5 58 4 29 -1 60 -1 68 -1 8 0 24 0 35 0 11 -1 27 -1 35 0 8 0
24 0 35 0 11 -1 26 -1 33 -1 25 2 38 2 90 0 29 -1 55 0 58 4 3 3 18 1 34 -3
16 -4 31 -5 35 -2 6 7 105 5 112 -2 2 -2 18 0 34 4 16 5 31 5 34 0 3 -5 15 -6
29 0 12 4 29 4 36 0 8 -5 21 -5 31 0 9 5 19 7 22 4 8 -8 106 -9 113 -1 3 3 18
1 34 -3 16 -4 31 -6 34 -3 3 4 29 5 58 4 29 -1 60 -1 68 -1 8 0 24 0 35 0 11
-1 27 -1 35 0 8 0 24 0 35 0 11 -1 26 -1 33 -1 25 2 38 2 90 0 29 -1 55 0 58
4 3 3 18 1 34 -3 16 -4 31 -5 35 -2 6 7 105 5 112 -2 2 -2 18 0 34 4 16 5 31
5 34 0 3 -5 15 -6 29 0 12 4 29 4 36 0 8 -5 21 -5 31 0 9 5 19 7 22 4 8 -8
106 -9 113 -1 3 3 18 1 34 -3 16 -4 31 -6 34 -3 3 4 29 5 58 4 29 -1 60 -1 68
-1 8 0 24 0 35 0 11 -1 27 -1 35 0 8 0 24 0 35 0 11 -1 26 -1 33 -1 26 2 140
2 167 1 25 -1 34 -1 65 2 l25 3 0 1003 0 1002 -1302 0 -1303 0 0 -1004z"/>
<path d="M1519 8250 c-1 -3 -2 -454 -3 -1002 -1 -683 2 -998 9 -1000 5 0 592
-2 1303 -3 l1292 -1 0 356 c0 195 0 443 1 550 0 107 -1 392 -1 633 0 241 2
442 5 447 3 5 0 12 -7 16 -14 9 -2597 12 -2599 4z"/>
<path d="M8049 6837 c-8 -9 -45 -50 -84 -90 -38 -41 -97 -105 -130 -142 -33
-38 -76 -87 -97 -110 -35 -39 -136 -157 -174 -204 -10 -13 -24 -28 -29 -35 -6
-6 -38 -45 -70 -86 -33 -41 -68 -84 -77 -94 -10 -11 -30 -38 -45 -60 -16 -22
-36 -48 -45 -58 -25 -26 -22 -38 10 -39 15 -1 36 -3 47 -4 11 -2 52 -6 90 -10
39 -3 84 -7 100 -9 39 -4 138 -14 218 -22 76 -7 93 -19 29 -20 -26 -1 -81 -5
-122 -9 -41 -5 -99 -9 -127 -9 -29 -1 -53 -3 -53 -6 0 -3 -12 -5 -27 -6 -40
-1 -180 -14 -233 -20 -28 -4 -52 -14 -63 -28 -24 -27 -167 -242 -167 -250 0
-4 -8 -15 -17 -24 -17 -17 -68 -18 -793 -17 l-775 1 -1 56 c-1 31 -4 64 -7 72
-5 14 2 15 50 10 31 -3 61 -6 66 -7 25 -5 13 20 -15 32 -18 8 -35 17 -38 20
-3 4 -17 14 -33 24 -27 17 -27 18 -11 55 9 20 18 43 21 50 4 9 -4 12 -32 9
-43 -5 -75 1 -75 14 0 19 -142 231 -180 269 -3 3 -32 36 -65 74 -61 71 -133
124 -195 144 -39 13 -147 22 -156 13 -3 -3 -10 -7 -15 -7 -5 -1 -12 -2 -16 -3
-4 0 11 -19 32 -41 21 -22 37 -41 35 -41 -3 -1 -18 -2 -35 -4 -111 -9 -204
-37 -294 -90 -33 -19 -66 -41 -73 -48 -7 -7 -28 -24 -46 -39 l-33 -27 46 -22
46 -22 -34 -31 c-83 -76 -111 -191 -92 -376 4 -36 9 -68 11 -71 2 -4 -2 -9 -9
-11 -6 -2 -562 -4 -1234 -3 l-1222 1 -63 62 c-64 63 -88 84 -192 175 -33 29
-67 59 -76 68 -18 17 -41 17 -145 -2 -33 -6 -73 -13 -90 -15 -16 -3 -52 -9
-80 -14 -63 -12 -96 -18 -154 -26 -25 -4 -55 -8 -66 -10 -11 -3 -36 -7 -55
-10 -19 -3 -39 -8 -45 -11 -7 -4 -7 -3 0 4 9 9 173 73 187 73 3 0 23 8 44 17
22 9 42 18 47 19 4 1 9 3 12 4 3 1 8 3 13 4 22 5 183 70 187 75 3 7 -172 142
-305 237 -30 21 -57 42 -58 46 -2 5 -8 8 -13 8 -8 0 -114 72 -146 100 -7 5
-14 10 -17 10 -3 0 -26 15 -52 33 -25 17 -53 37 -62 42 -9 6 -37 24 -62 40
-53 36 -80 52 -100 61 -8 4 -17 11 -20 14 -12 15 -99 60 -103 53 -2 -4 -25
-75 -52 -158 -26 -82 -50 -157 -53 -165 -3 -8 -6 -19 -8 -25 -1 -5 -17 -57
-34 -115 -17 -58 -33 -115 -36 -127 -2 -12 -9 -34 -14 -48 -5 -14 -7 -25 -4
-25 2 0 0 -8 -5 -18 -6 -11 -12 -30 -15 -44 -2 -13 -16 -71 -30 -129 -14 -57
-28 -114 -31 -126 -3 -13 -7 -33 -10 -45 -8 -37 -26 -131 -31 -158 -6 -35 -12
-65 -14 -65 -1 0 -3 -11 -5 -25 -6 -50 -34 -246 -41 -290 -13 -87 -12 -403 1
-485 13 -74 44 -193 65 -240 63 -148 128 -262 189 -335 79 -96 122 -141 165
-176 27 -21 54 -44 61 -50 14 -14 157 -104 165 -104 3 0 6 73 6 163 4 443 10
645 17 640 5 -3 6 -7 4 -10 -3 -2 -1 -18 3 -34 5 -16 11 -51 15 -77 7 -53 13
-87 15 -87 1 0 3 -11 5 -25 6 -45 15 -95 20 -120 11 -53 15 -70 35 -190 5 -30
12 -71 16 -90 3 -19 8 -44 9 -55 10 -62 35 -188 39 -192 5 -5 107 -29 161 -38
22 -3 84 -7 137 -8 108 -2 109 -2 97 -70 -3 -20 -2 -40 2 -43 5 -3 7 -10 4
-15 -3 -5 -6 -35 -5 -66 0 -32 0 -96 0 -143 -1 -111 -1 -106 0 -173 1 -31 -2
-61 -5 -66 -3 -5 -1 -12 5 -16 6 -4 8 -11 5 -16 -3 -5 -6 -35 -5 -66 0 -32 0
-96 0 -143 -1 -111 -1 -106 0 -173 1 -31 -2 -61 -5 -66 -3 -5 -1 -12 5 -16 6
-4 8 -11 5 -16 -3 -5 -6 -35 -5 -66 0 -32 0 -96 0 -143 -1 -111 -1 -106 0
-173 1 -31 -2 -61 -5 -66 -3 -5 -1 -12 5 -16 6 -4 8 -11 5 -16 -3 -5 -6 -35
-5 -66 1 -163 1 -219 0 -228 -1 -5 -2 -14 -1 -20 1 -7 437 -10 1286 -10 867 0
1285 -3 1286 -10 2 -13 2 -23 -6 -180 -4 -71 -8 -141 -9 -155 -2 -15 4 -30 16
-38 12 -9 17 -21 13 -32 -3 -10 -7 -27 -9 -37 -2 -10 -23 -85 -46 -168 -23
-82 -43 -159 -46 -170 -2 -11 -11 -45 -19 -75 -9 -30 -18 -63 -20 -73 -2 -10
-7 -27 -10 -37 -8 -25 -16 -63 -17 -77 -1 -7 -5 -13 -10 -13 -5 0 -7 -4 -4 -9
3 -5 -1 -28 -9 -51 -8 -23 -15 -44 -15 -46 0 -2 193 -4 428 -4 l428 0 47 45
47 45 22 -45 22 -45 458 0 458 0 1 23 c0 12 2 31 5 42 4 20 6 43 20 175 8 82
7 252 -2 305 -9 49 -9 133 0 200 12 89 14 99 20 155 3 30 8 69 10 85 7 51 19
159 19 173 0 6 5 13 11 13 6 1 594 3 1306 4 712 2 1303 3 1313 4 16 1 17 54
17 964 l0 963 63 29 c89 42 139 74 132 85 -4 6 -8 43 -10 83 -5 70 -9 131 -20
247 -3 30 -7 84 -9 120 -2 36 -7 90 -10 120 -6 55 -11 120 -22 260 -3 41 -7
84 -10 95 -3 14 0 13 10 -6 8 -14 17 -37 20 -50 3 -13 12 -49 21 -79 9 -30 18
-63 20 -74 2 -10 12 -44 21 -75 9 -31 18 -63 19 -71 2 -8 4 -15 5 -15 1 0 3
-7 5 -15 2 -8 10 -40 19 -70 8 -30 22 -82 31 -115 10 -33 20 -67 23 -75 3 -8
6 -19 7 -25 12 -54 39 -135 45 -135 8 0 74 66 103 103 12 15 30 38 41 50 47
55 138 211 129 221 -4 3 -1 6 4 6 16 0 92 205 109 292 2 13 6 34 9 48 26 120
26 394 0 506 -2 10 -9 39 -16 64 -6 25 -12 52 -14 60 -2 8 -15 48 -28 88 -14
39 -23 72 -20 72 3 0 1 6 -4 13 -6 6 -16 30 -23 52 -7 22 -23 63 -36 92 -13
28 -24 54 -24 58 0 23 -268 568 -282 573 -4 2 -8 7 -8 11 0 13 -103 196 -112
199 -4 2 -8 8 -8 13 0 17 -280 473 -346 563 -19 26 -22 27 -35 13z"/>
</g>
</svg>
